<svg xmlns="http://www.w3.org/2000/svg" width="62" height="62" viewBox="0 0 62 62">
  <g id="Сгруппировать_454" data-name="Сгруппировать 454" transform="translate(-1362 -5123)">
    <g id="Play_video" data-name="Play video" transform="translate(162.852 4732.852)">
      <circle id="Эллипс_5" data-name="Эллипс 5" cx="31" cy="31" r="31" transform="translate(1199.148 390.148)" fill="#fff"/>
      <g id="Layer_2" data-name="Layer 2" transform="translate(1207.306 398.825)">
        <g id="play-circle" transform="translate(0 0)">
          <rect id="Прямоугольник_18" data-name="Прямоугольник 18" width="47" height="46" transform="translate(-0.158 0.323)" fill="#f56962" opacity="0"/>
          <path id="Контур_8" data-name="Контур 8" d="M15,7.869a3.284,3.284,0,0,0-3.574-.58A3.091,3.091,0,0,0,9.49,10.149v13.02a3.091,3.091,0,0,0,1.932,2.859,3.245,3.245,0,0,0,1.333.29A3.361,3.361,0,0,0,15,25.449l7.07-6.51a3.091,3.091,0,0,0,0-4.559Z" transform="translate(9.022 6.702)" fill="#f56962"/>
        </g>
      </g>
    </g>
  </g>
</svg>
