<svg xmlns="http://www.w3.org/2000/svg" width="24.658" height="20.956" viewBox="0 0 24.658 20.956">
  <path id="Контур_30" data-name="Контур 30" d="M14.328,24.957a1.233,1.233,0,0,1-.875-.357L3.874,15.008A6.45,6.45,0,1,1,13,5.886l1.331,1.331,1.331-1.331a6.45,6.45,0,1,1,9.122,9.122L15.2,24.6a1.233,1.233,0,0,1-.875.357ZM8.435,6.465A3.945,3.945,0,0,0,5.625,7.624a3.994,3.994,0,0,0,0,5.634l8.7,8.716,8.7-8.716a3.994,3.994,0,0,0,0-5.634,4.093,4.093,0,0,0-5.621,0L15.2,9.843a1.233,1.233,0,0,1-1.751,0L11.246,7.624A3.945,3.945,0,0,0,8.435,6.465Z" transform="translate(-1.999 -4)" fill="#ef8543"/>
</svg>
