<svg id="linkedin" xmlns="http://www.w3.org/2000/svg" width="28" height="28" viewBox="0 0 28 28">
  <rect id="Прямоугольник_57" data-name="Прямоугольник 57" width="28" height="28" transform="translate(28 28) rotate(180)" fill="#777" opacity="0"/>
  <path id="Контур_51" data-name="Контур 51" d="M16.125,8.4A6.8,6.8,0,0,0,9.3,15.19v6.86a1.05,1.05,0,0,0,1.05,1.05H12.8a1.05,1.05,0,0,0,1.05-1.05V15.19a2.263,2.263,0,0,1,2.508-2.252A2.333,2.333,0,0,1,18.4,15.272V22.05a1.05,1.05,0,0,0,1.05,1.05H21.9a1.05,1.05,0,0,0,1.05-1.05V15.19A6.8,6.8,0,0,0,16.125,8.4Z" transform="translate(1.55 1.4)" fill="#777"/>
  <rect id="Прямоугольник_58" data-name="Прямоугольник 58" width="5.25" height="13.65" rx="0.9" transform="translate(3.5 10.85)" fill="#777"/>
  <circle id="Эллипс_15" data-name="Эллипс 15" cx="2.625" cy="2.625" r="2.625" transform="translate(3.5 3.5)" fill="#777"/>
</svg>
